<?xml version="1.0" encoding="UTF-8"?>
<svg id="Layer_1" xmlns="http://www.w3.org/2000/svg" xmlns:xlink="http://www.w3.org/1999/xlink" viewBox="0 0 300.69 277">
  <defs>
    <clipPath id="clippath">
      <rect x="92.94" y="0" width="207.75" height="277" style="fill: none;"/>
    </clipPath>
    <linearGradient id="linear-gradient" x1="-11.3" y1="273.16" x2="191.7" y2="176.66" gradientTransform="translate(404.1 212.09) rotate(-90) scale(.92 -.92)" gradientUnits="userSpaceOnUse">
      <stop offset="0" stop-color="#067857"/>
      <stop offset=".49" stop-color="#002b1f"/>
      <stop offset="1" stop-color="#085f46"/>
    </linearGradient>
    <linearGradient id="linear-gradient-2" x1="-5.12" y1="430.02" x2="197.88" y2="333.52" gradientTransform="translate(402.72 212.09) rotate(-90) scale(.92 -.92)" xlink:href="#linear-gradient"/>
  </defs>
  <g style="clip-path: url(#clippath);">
    <path d="M157.12,73.56c-1.07,3.72-1.66,7.85-1.66,12.38,0,50.78,73.87,50.78,73.87,101.57s-73.87,50.78-73.87,0h0c0-50.78,73.87-50.78,73.87-101.57,0-23.93-16.41-36.59-33.75-37.96" style="fill: none; stroke: url(#linear-gradient); stroke-linecap: round; stroke-linejoin: round; stroke-width: 18.47px;"/>
    <path d="M10.89,67.85c-1.07,3.72-1.66,7.85-1.66,12.38,0,50.78,73.87,50.78,73.87,101.57s-73.87,50.78-73.87,0h0c0-50.78,73.87-50.78,73.87-101.57,0-23.93-16.41-36.59-33.75-37.96" style="fill: none; stroke: url(#linear-gradient-2); stroke-linecap: round; stroke-linejoin: round; stroke-width: 18.47px;"/>
  </g>
</svg>